<svg xmlns="http://www.w3.org/2000/svg" xmlns:xlink="http://www.w3.org/1999/xlink" width="200" zoomAndPan="magnify" viewBox="0 0 150 149.999998" height="200" preserveAspectRatio="xMidYMid meet" version="1.0"><path fill="#ffffff" d="M 36.773438 87.832031 L 37.308594 118.914062 L 37.839844 149.996094 L 35.699219 149.996094 L 36.230469 118.914062 Z M 42.433594 84.214844 L 42.96875 117.105469 L 43.5 149.996094 L 41.359375 149.996094 L 41.898438 117.105469 Z M 53.21875 18.242188 L 53.757812 84.121094 L 54.292969 149.996094 L 52.148438 149.996094 L 52.6875 84.121094 Z M 58.554688 15.871094 L 59.089844 82.933594 L 59.625 149.992188 L 57.480469 149.992188 L 58.015625 82.933594 Z M 63.890625 12.550781 L 64.425781 81.273438 L 64.960938 149.992188 L 62.816406 149.992188 L 63.351562 81.273438 Z M 69.226562 10.417969 L 70.296875 149.996094 L 68.152344 149.996094 L 68.6875 80.207031 Z M 74.558594 7.570312 L 75.09375 78.785156 L 75.628906 149.996094 L 73.484375 149.996094 L 74.019531 78.785156 Z M 97.078125 57.007812 L 97.613281 103.503906 L 98.148438 149.996094 L 96.003906 149.996094 L 96.539062 103.503906 Z M 102.53125 60.328125 L 103.066406 105.164062 L 103.597656 149.996094 L 101.457031 149.996094 L 101.988281 105.164062 Z M 107.984375 63.292969 L 108.519531 106.644531 L 109.054688 150 L 106.910156 150 L 107.445312 106.644531 Z M 113.4375 65.660156 L 113.96875 107.828125 L 114.503906 149.992188 L 112.363281 149.992188 L 112.894531 107.828125 Z M 118.890625 67.558594 L 119.425781 108.78125 L 119.960938 150 L 117.820312 150 L 118.355469 108.78125 Z M 80.753906 5.097656 L 81.824219 64.792969 L 79.679688 64.792969 L 80.214844 34.945312 Z M 86.179688 2.195312 L 86.714844 32.117188 L 87.246094 62.039062 L 85.105469 62.039062 L 85.640625 32.117188 Z M 91.601562 0 L 92.136719 29.507812 L 92.671875 59.011719 L 90.53125 59.011719 L 91.066406 29.507812 Z M 31.113281 90.230469 L 31.644531 120.113281 L 32.179688 149.996094 L 30.039062 149.996094 L 30.574219 120.113281 Z M 31.113281 90.230469 " fill-opacity="1" fill-rule="evenodd"/></svg>