<svg xmlns="http://www.w3.org/2000/svg" width="200" viewBox="0 0 150 150" height="200" version="1.0"><defs><clipPath id="a"><path d="M12.469 3H135v147H12.469Zm0 0"/></clipPath></defs><g clip-path="url(#a)"><path fill="#fff" d="M126.02 63.707H48.93V14.738c0-5.941-4.82-10.761-10.766-10.761-9.113.34-25.414-3.051-25.727 10.761v56C12.845 81.813 23.203 82 31.695 81.504l4.637 65.02a3.118 3.118 0 0 0 3.11 2.89h51.796c1.617 0 2.989-1.273 3.114-2.89l1.773-24.86c19.91-4.262 34.219-21.34 34.875-41.844 6.469-4.445 3.36-16.394-4.98-16.113Zm0 6.223c3.02-.032 3.02 5.414 0 5.382H48.93V69.93Zm-107.36.84v-56a4.546 4.546 0 0 1 4.543-4.54h14.992a4.544 4.544 0 0 1 4.543 4.54v56c.063 4.418-4.758 4.882-8.12 4.543-4.044-.657-16.083 2.457-15.958-4.543Zm74.012 45.296c-3.89.778-13.473.371-17.578.465-4.043-.062-4.043 6.285 0 6.223 2.332-.063 12.566.094 14.683-.125l-1.46 20.594h-45.95L37.95 81.53H124.715c-1.403 17.485-14.438 31.766-32.043 34.535Zm0 0"/></g></svg>