<svg xmlns="http://www.w3.org/2000/svg" width="200" viewBox="0 0 150 150" height="200" version="1.0"><defs><clipPath id="a"><path d="M21 5.281h46V74H21Zm0 0"/></clipPath><clipPath id="b"><path d="M35 125h20v19.781H35Zm0 0"/></clipPath><clipPath id="c"><path d="M95 125h20v19.781H95Zm0 0"/></clipPath></defs><path fill="#fff" d="M106.93 129.773H43.363c-29.582 0-32.804-34.273-32.804-48.918 0-1.171 1.171-2.05 2.343-2.05h124.489c1.172 0 2.05.879 2.05 2.05 0 14.645-3.222 48.918-32.511 48.918ZM14.953 82.906c.293 16.696 4.684 42.473 28.41 42.473h63.567c24.312 0 28.117-28.121 28.117-42.473Zm0 0" fill-rule="evenodd"/><path fill="#fff" d="M143.25 82.906H6.75c-3.809 0-6.738-2.93-6.738-6.738 0-3.809 2.93-6.738 6.738-6.738h136.5c3.809 0 6.738 2.93 6.738 6.738 0 3.809-2.93 6.738-6.738 6.738ZM6.75 73.824c-1.172 0-2.637 1.172-2.637 2.344a2.626 2.626 0 0 0 2.637 2.637h136.5a2.626 2.626 0 0 0 2.637-2.637c0-1.172-1.172-2.344-2.637-2.344Zm0 0" fill-rule="evenodd"/><g clip-path="url(#a)"><path fill="#fff" d="M23.738 73.824c-1.465 0-2.343-.879-2.343-2.05V27.835c0-12.594 10.253-22.555 22.554-22.555 12.305 0 22.555 9.961 22.555 22.555 0 1.172-1.172 2.05-2.344 2.05-1.168 0-2.047-1.171-2.047-2.05 0-9.961-8.203-18.16-18.457-18.16-9.664 0-17.867 8.199-17.867 18.16v43.937c0 1.172-1.172 2.051-2.05 2.051Zm0 0" fill-rule="evenodd"/></g><path fill="#fff" d="M51.273 45.703c-.586 0-.878 0-1.171-.293-.586 0-.88-.586-.88-1.172l-1.757-5.855c-.586-2.051-.293-4.395.879-6.153 1.172-2.05 2.93-3.222 4.98-3.808l19.918-5.274c2.051-.585 4.395-.293 6.153.586 2.05 1.172 3.222 2.93 4.101 4.98l1.465 5.86c0 .586 0 1.172-.293 1.465-.293.879-.586.879-1.172 1.172L51.86 45.703h-.586Zm24.313-18.746c-.293 0-.586 0-.879.293l-20.21 5.273c-.88.293-1.759.88-2.345 1.758-.586.88-.879 2.051-.586 2.93l1.172 3.805 27.535-7.32-.878-3.81c-.293-1.171-1.172-2.05-1.758-2.636-.88 0-1.465-.293-2.051-.293Zm0 0" fill-rule="evenodd"/><g clip-path="url(#b)"><path fill="#fff" d="M46.879 144.71h-8.785c-.88 0-1.465-.292-1.758-.878-.293-.879-.586-1.465-.293-2.05l5.855-14.938c.586-1.172 1.758-1.758 2.93-1.172.879.293 1.465 1.465 1.172 2.637l-4.688 12.007h4.102l5.273-13.472c.586-1.172 1.758-1.758 2.93-1.172 1.172.293 1.465 1.465 1.172 2.637l-5.86 14.937c-.292.879-1.171 1.465-2.05 1.465Zm0 0" fill-rule="evenodd"/></g><g clip-path="url(#c)"><path fill="#fff" d="M111.906 144.71h-8.785c-.879 0-1.758-.585-2.05-1.464l-5.86-14.937c-.293-1.172.293-2.344 1.172-2.637 1.172-.586 2.344 0 2.93 1.172l5.273 13.472h4.102L104 128.31c-.293-1.172.293-2.344 1.172-2.637 1.172-.586 2.344 0 2.93 1.172l5.855 14.937c.293.586 0 1.172-.293 2.051-.293.586-1.172.879-1.758.879Zm0 0" fill-rule="evenodd"/></g></svg>