<svg xmlns="http://www.w3.org/2000/svg" width="200" viewBox="0 0 150 150" height="200" version="1.0"><path fill="#fff" d="M148.164 60.645 76.547 8.922a2.977 2.977 0 0 0-3.578.062L1.348 64.687a2.979 2.979 0 0 0-.52 4.184 2.977 2.977 0 0 0 4.188.527l7.12-5.539v74.801a2.983 2.983 0 1 0 5.965 0V59.22l56.766-44.153L131.5 55.97v82.691a2.984 2.984 0 1 0 5.969 0V60.277l7.203 5.207a2.984 2.984 0 1 0 3.492-4.84Zm0 0"/><path fill="#fff" d="M113.723 98.148a4.823 4.823 0 0 1-.54-1.074l-5.257-21.605c-1.301-4.375-5.406-7.438-9.977-7.438H51.652c-4.566 0-8.672 3.063-10.015 7.582L36.453 96.93a4.2 4.2 0 0 1-.574 1.21l-6.05 8.977a10.365 10.365 0 0 0-1.782 5.82v10.235c0 2.695 1.644 5.012 3.976 6.012v5.5c0 3.836 3.125 6.96 6.965 6.96h7.957c3.84 0 6.965-3.124 6.965-6.96v-4.977h41.778v4.977c0 3.836 3.12 6.96 6.96 6.96h7.957c3.84 0 6.965-3.124 6.965-6.96v-5.496a6.541 6.541 0 0 0 3.977-6.012V112.94a10.38 10.38 0 0 0-1.777-5.816ZM47.395 77.172a4.464 4.464 0 0 1 4.253-3.168H97.95c1.95 0 3.7 1.305 4.219 3.023l4.59 18.86h-63.91Zm-13.375 35.77c0-.887.261-1.743.757-2.485l5.805-8.602h68.441l5.805 8.606c.492.738.754 1.594.754 2.48v10.235c0 .308-.25.562-.562.562H89.723v-8.949a2.987 2.987 0 0 0-2.985-2.984H62.863a2.987 2.987 0 0 0-2.984 2.984v8.95H34.582a.563.563 0 0 1-.562-.563Zm49.734 10.796H65.848v-5.965h17.906Zm-35.809 10.946a.994.994 0 0 1-.996.992h-7.957a.994.994 0 0 1-.996-.992v-4.977h9.95Zm62.664.992h-7.957a.994.994 0 0 1-.996-.992v-4.977h9.95v4.977a.994.994 0 0 1-.997.992Zm0 0"/><path fill="#fff" d="M42.973 117.773h7.957a2.99 2.99 0 0 0 2.984-2.984 2.987 2.987 0 0 0-2.984-2.984h-7.957a2.984 2.984 0 1 0 0 5.968ZM98.672 117.773h7.96a2.99 2.99 0 0 0 2.985-2.984 2.987 2.987 0 0 0-2.984-2.984h-7.961a2.983 2.983 0 0 0-2.98 2.984 2.986 2.986 0 0 0 2.98 2.984Zm0 0"/></svg>