<svg xmlns="http://www.w3.org/2000/svg" width="200" viewBox="0 0 150 150" height="200" version="1.0"><path fill="#fff" d="M147.34 91.832h-4.004V71.641c0-4.79-3.89-8.68-8.68-8.68h-87.32c.191-.629.32-1.29.32-1.977V53.54c0-3.746-3.054-6.8-6.8-6.8H22.901c-1.8 0-3.425.726-4.648 1.866v-29.19A2.41 2.41 0 0 0 15.844 17H2.66a2.41 2.41 0 0 0-2.41 2.414v91.934a2.409 2.409 0 0 0 2.41 2.41h4.18v16.828A2.41 2.41 0 0 0 9.254 133h9.258a2.407 2.407 0 0 0 2.41-2.414v-16.828h110.453v16.828a2.41 2.41 0 0 0 2.41 2.414h9.262a2.41 2.41 0 0 0 2.41-2.414v-16.828h1.883a2.409 2.409 0 0 0 2.41-2.41V94.242a2.406 2.406 0 0 0-2.41-2.41Zm-2.414 17.102H18.254V96.652h126.672Zm-6.414-37.293v20.191H18.254v-24.05h116.402a3.87 3.87 0 0 1 3.856 3.859ZM20.922 53.555c0-1.094.887-1.977 1.98-1.977h17.953c1.094 0 1.977.883 1.977 1.977V61c0 1.09-.883 1.977-1.977 1.977H22.902A1.98 1.98 0 0 1 20.922 61ZM5.074 21.825h8.36v87.124h-8.36Zm11.028 106.35h-4.438v-14.417h4.438Zm124.55 0h-4.437v-14.417h4.437Zm0 0"/></svg>