<svg xmlns="http://www.w3.org/2000/svg" width="200" viewBox="0 0 150 150" height="200" version="1.0"><defs><clipPath id="a"><path d="M105 22.875h45V108h-45Zm0 0"/></clipPath><clipPath id="b"><path d="M0 36h121v91.125H0Zm0 0"/></clipPath></defs><g clip-path="url(#a)"><path fill="#fff" d="M149.91 106.086V60.539c0-.219-.043-.43-.125-.633a1.698 1.698 0 0 0-.36-.535 1.604 1.604 0 0 0-.534-.355 1.586 1.586 0 0 0-.63-.125h-19.964V45.855h7.172a1.649 1.649 0 0 0 1.605-1.273c.059-.242.059-.484.008-.73l-3.7-16.864a5.253 5.253 0 0 0-1.84-2.953 5.269 5.269 0 0 0-3.277-1.164h-10.171a5.246 5.246 0 0 0-1.735.305 5.238 5.238 0 0 0-2.71 2.18 5.145 5.145 0 0 0-.669 1.632l-3.699 16.864c-.054.246-.05.488.008.73.055.242.164.461.32.656a1.663 1.663 0 0 0 1.281.617h7.176v13.036h-11.004c-.218 0-.425.039-.628.125a1.604 1.604 0 0 0-.536.355 1.698 1.698 0 0 0-.359.535 1.642 1.642 0 0 0 .36 1.797c.152.156.331.274.535.36.203.082.41.124.629.124h39.55V76.29h-23.43a1.644 1.644 0 0 0-1.168.48 1.644 1.644 0 0 0-.48 1.168 1.644 1.644 0 0 0 .48 1.164c.157.157.333.274.536.356.203.086.414.129.633.129h23.43v14.098h-20.321a1.635 1.635 0 0 0-1.184.472 1.683 1.683 0 0 0-.363.54 1.627 1.627 0 0 0 0 1.273c.086.207.207.386.363.539a1.635 1.635 0 0 0 1.184.473h8.172c.133.082.277.144.43.183 7.093 1.734 6.546 8.473 6.523 8.754-.023.23 0 .457.07.68.075.222.188.418.344.593.156.172.344.305.555.399a1.6 1.6 0 0 0 .672.144h5.199c.219 0 .43-.043.633-.125a1.655 1.655 0 0 0 .894-.894c.082-.2.125-.41.125-.63ZM116.2 27.69c.1-.441.327-.804.683-1.09.351-.288.758-.43 1.21-.433h10.173c.457.004.859.145 1.214.434.356.285.583.648.68 1.09l3.258 14.863h-20.477Zm5.16 18.164H125v13.036h-3.64Zm23.355 58.583a11.6 11.6 0 0 0-1.008-4.032 11.566 11.566 0 0 0-2.36-3.426h5.266v7.457Zm0 0"/></g><g clip-path="url(#b)"><path fill="#fff" d="M1.738 127.129h6.723c.207 0 .402-.04.594-.11.187-.074.36-.18.511-.316.153-.137.274-.293.364-.476.093-.18.152-.375.172-.579.05-.484 1.363-11.91 11.289-14.18.05-.011.101-.03.152-.05h77.406c.047.016.086.035.137.047 9.945 2.258 11.258 13.7 11.309 14.183a1.676 1.676 0 0 0 .535 1.059c.152.137.324.242.515.313.188.074.387.109.59.109h6.723c.219 0 .43-.04.633-.125a1.644 1.644 0 0 0 1.016-1.52V89.328c0-1.664-.302-3.27-.9-4.816a13.34 13.34 0 0 0-2.562-4.176c-5.468-6.082-12.96-10.973-16.797-13.273a6.089 6.089 0 0 0 1.926-4.453c0-1.52-.304-2.981-.918-4.376a10.776 10.776 0 0 0-2.601-3.632v-9.137c0-.613-.063-1.219-.18-1.817a9.474 9.474 0 0 0-.531-1.746 9.381 9.381 0 0 0-2.02-3.02 9.534 9.534 0 0 0-1.41-1.155 9.22 9.22 0 0 0-1.61-.86 9.015 9.015 0 0 0-1.745-.531 9.112 9.112 0 0 0-1.813-.18H31.254a9.18 9.18 0 0 0-1.817.18 9.061 9.061 0 0 0-1.742.531 9.337 9.337 0 0 0-3.02 2.016c-.433.433-.82.902-1.155 1.41a9.381 9.381 0 0 0-.864 1.61 9.474 9.474 0 0 0-.531 1.745 9.421 9.421 0 0 0-.18 1.817v9.137a10.776 10.776 0 0 0-2.601 3.632 10.76 10.76 0 0 0-.918 4.375 6.089 6.089 0 0 0 1.926 4.453c-3.836 2.301-11.329 7.192-16.797 13.274a13.412 13.412 0 0 0-2.563 4.176 13.253 13.253 0 0 0-.898 4.816v36.152c0 .22.039.43.125.63a1.655 1.655 0 0 0 .89.895c.204.08.41.124.63.124Zm115.375-19.008H3.387V97.453h113.726ZM7.06 123.832H3.387v-12.414H14.05c-4.778 3.84-6.45 9.684-6.992 12.414Zm106.382 0c-.543-2.73-2.214-8.574-6.992-12.414h10.664v12.414Zm-17.5-58.379H61.898v-2.371a8.93 8.93 0 0 1 1.329-4.8 8.882 8.882 0 0 1 1.02-1.337 8.72 8.72 0 0 1 2.69-1.984 8.768 8.768 0 0 1 1.579-.574 8.865 8.865 0 0 1 1.66-.27c.172-.008.347-.012.527-.012h14.371c.055-.003 5.399-.203 9.516 1.754.633.309 1.21.7 1.73 1.172.52.469.97 1.004 1.336 1.602a7.455 7.455 0 0 1 1.125 3.98c0 .375-.074.739-.215 1.086a2.821 2.821 0 0 1-1.54 1.535c-.346.145-.71.22-1.085.22Zm-64.687-26h57.992a5.98 5.98 0 0 1 2.3.46 5.971 5.971 0 0 1 2.695 2.215c.224.325.407.673.56 1.036.148.367.265.742.34 1.129.078.387.117.777.117 1.172v7.086c-4.543-1.89-9.742-1.762-10.285-1.742h-14.27a11.937 11.937 0 0 0-6.348 1.79 11.99 11.99 0 0 0-4.105 4.266 11.842 11.842 0 0 0-1.785-2.392 11.907 11.907 0 0 0-5.035-3.118 11.937 11.937 0 0 0-3.633-.546h-14.27c-.539-.02-5.742-.149-10.285 1.742v-7.086a6.055 6.055 0 0 1 .457-2.3 6.167 6.167 0 0 1 1.305-1.95c.281-.278.582-.528.91-.746a6.067 6.067 0 0 1 3.34-1.016ZM25.91 55.86c3.414-1.62 7.703-1.761 9.074-1.761.278 0 .434.004.442.007H49.796c.18 0 .356.004.532.012a8.817 8.817 0 0 1 4.676 1.707 8.75 8.75 0 0 1 2.27 2.457c.296.477.546.98.746 1.504.203.528.351 1.067.449 1.621.097.555.14 1.114.133 1.676v2.367h-34.04a2.832 2.832 0 0 1-2.008-.832 2.832 2.832 0 0 1-.831-2.008c-.004-.703.09-1.39.28-2.066a7.444 7.444 0 0 1 2.18-3.516 7.505 7.505 0 0 1 1.727-1.168ZM6.008 82.54c6.426-7.152 16.199-12.781 18.055-13.816.164.015.332.027.5.027H95.94c.168 0 .329-.012.496-.027 1.856 1.035 11.63 6.664 18.055 13.816a10.145 10.145 0 0 1 2.621 6.79v4.827H3.387v-4.828c.004-1.254.23-2.469.683-3.637a9.988 9.988 0 0 1 1.938-3.152Zm0 0"/></g><path fill="#fff" d="M128.836 68.844a1.628 1.628 0 0 1-.48 1.164 1.595 1.595 0 0 1-.536.36 1.677 1.677 0 0 1-.632.124c-.215 0-.426-.043-.63-.125a1.595 1.595 0 0 1-.535-.36 1.568 1.568 0 0 1-.355-.53 1.608 1.608 0 0 1 0-1.262 1.655 1.655 0 0 1 .89-.895c.204-.082.415-.125.63-.125.218 0 .43.043.632.125a1.655 1.655 0 0 1 1.016 1.524ZM128.836 87.027c0 .22-.04.43-.125.63a1.655 1.655 0 0 1-.89.895 1.677 1.677 0 0 1-.633.124c-.215 0-.426-.043-.63-.125a1.655 1.655 0 0 1-1.019-1.524c0-.218.043-.43.129-.632.082-.2.2-.38.355-.532.157-.156.332-.277.536-.36a1.677 1.677 0 0 1 1.262 0c.202.083.378.204.534.36a1.628 1.628 0 0 1 .48 1.164Zm0 0"/></svg>