<svg xmlns="http://www.w3.org/2000/svg" width="200" viewBox="0 0 150 150" height="200" version="1.0"><path fill="#fff" d="M3.566 149.86H146.32a3.562 3.562 0 0 0 3.567-3.563V3.523a3.565 3.565 0 0 0-3.567-3.566H3.566A3.568 3.568 0 0 0 0 3.523v142.758a3.565 3.565 0 0 0 3.566 3.567ZM7.133 7.104h135.625V142.73H7.133Zm0 0"/><path fill="#fff" d="M49.96 17.8a3.564 3.564 0 0 0-3.562-3.566H17.844c-.465 0-.93.09-1.364.27a3.486 3.486 0 0 0-1.078.723c-.03.027-.062.027-.078.058-.043.043-.058.09-.09.133-.27.3-.507.629-.671 1.02-.18.433-.286.914-.27 1.378v28.54a3.565 3.565 0 0 0 3.566 3.566 3.572 3.572 0 0 0 3.563-3.567v-19.94L43.879 48.87a3.528 3.528 0 0 0 2.52 1.05c.913 0 1.828-.343 2.515-1.05a3.567 3.567 0 0 0 0-5.047L26.457 21.367h19.941a3.562 3.562 0 0 0 3.563-3.566ZM132.043 99.898a3.562 3.562 0 0 0-3.563 3.567v19.941l-22.457-22.457a3.572 3.572 0 0 0-5.05 0 3.574 3.574 0 0 0 0 5.047l22.457 22.457h-19.938a3.563 3.563 0 0 0-3.566 3.567 3.575 3.575 0 0 0 3.566 3.566h28.551c.465 0 .93-.09 1.363-.27a3.55 3.55 0 0 0 1.082-.722c.028-.028.059-.028.075-.059.042-.043.058-.09.09-.133.269-.3.507-.632.671-1.02.18-.433.285-.913.27-1.378v-28.54a3.564 3.564 0 0 0-3.563-3.566Zm0 0"/></svg>