<svg xmlns="http://www.w3.org/2000/svg" width="200" viewBox="0 0 150 150" height="200" version="1.0"><defs><clipPath id="a"><path d="M119 133h30.625v17H119Zm0 0"/></clipPath><clipPath id="b"><path d="M119 32h30.625v18H119Zm0 0"/></clipPath><clipPath id="c"><path d="M.375 0H18v30H.375Zm0 0"/></clipPath></defs><path fill="#fff" d="M110.855 144.95H7.508a2.1 2.1 0 0 1-.785-.157 2.068 2.068 0 0 1-1.11-1.11 2.1 2.1 0 0 1-.156-.785V39.551c0-.274.055-.535.156-.785a2.068 2.068 0 0 1 1.11-1.11c.254-.105.515-.156.785-.156h103.347c.274 0 .536.05.786.156.25.102.472.25.664.446.195.191.343.414.445.664.105.25.156.511.156.785v103.347c0 .27-.05.532-.156.786a2.068 2.068 0 0 1-1.11 1.11 2.07 2.07 0 0 1-.785.155ZM9.56 140.847h99.246V41.602H9.559Zm0 0"/><g clip-path="url(#a)"><path fill="#fff" d="M134.664 149.996c-.566 0-1.05-.2-1.45-.601l-12.694-12.692a2.07 2.07 0 0 1-.602-1.453 2.065 2.065 0 0 1 .602-1.45c.19-.19.414-.34.664-.44.254-.106.515-.157.785-.157.273 0 .535.05.785.156.254.102.473.25.668.442l11.242 11.246 11.242-11.246c.196-.192.414-.34.668-.442.25-.105.512-.156.781-.156.274 0 .536.055.786.156a2.068 2.068 0 0 1 1.109 1.11c.102.25.156.511.156.785 0 .27-.05.531-.156.781-.102.254-.25.473-.441.668l-12.696 12.692a1.964 1.964 0 0 1-1.449.601Zm0 0"/></g><g clip-path="url(#b)"><path fill="#fff" d="M147.36 49.23a1.97 1.97 0 0 1-1.454-.597l-11.242-11.246-11.242 11.246c-.195.191-.414.34-.668.445-.25.102-.512.152-.785.152a2.043 2.043 0 0 1-1.895-1.266 2.065 2.065 0 0 1-.156-.78 2.07 2.07 0 0 1 .602-1.454l12.695-12.69c.191-.192.414-.34.664-.446.25-.106.512-.157.785-.157.274 0 .531.051.785.157.25.105.473.254.664.445L148.81 45.73c.293.293.48.645.558 1.051.082.407.043.801-.117 1.184-.156.383-.41.691-.754.922-.344.23-.723.343-1.137.343Zm0 0"/></g><path fill="#fff" d="M134.672 148.86a2.07 2.07 0 0 1-1.453-.602 1.996 1.996 0 0 1-.442-.664 2.026 2.026 0 0 1-.156-.785V38.266c0-.274.05-.536.156-.786a2.023 2.023 0 0 1 1.11-1.11c.25-.104.511-.155.785-.155.27 0 .531.05.781.156a2.023 2.023 0 0 1 1.11 1.11c.105.25.156.511.156.785v108.543c0 .27-.051.53-.156.785-.102.25-.25.472-.442.664a2.065 2.065 0 0 1-1.45.602ZM103.215 29.68a2 2 0 0 1-1.137-.348 2 2 0 0 1-.758-.918 2.056 2.056 0 0 1-.117-1.187c.082-.407.27-.754.563-1.047l11.242-11.246L101.766 3.69a2.068 2.068 0 0 1-.446-.664 2.096 2.096 0 0 1-.152-.785c0-.273.05-.535.156-.785.102-.25.25-.473.442-.664a2.065 2.065 0 0 1 1.45-.602c.272 0 .534.051.784.157.25.105.473.25.664.445l12.695 12.691c.192.192.34.414.446.664a2.1 2.1 0 0 1 .156.786 2.027 2.027 0 0 1-.602 1.45l-12.695 12.694a1.964 1.964 0 0 1-1.45.602Zm0 0"/><g clip-path="url(#c)"><path fill="#fff" d="M15.145 29.68c-.567 0-1.051-.2-1.45-.602L1.004 16.383a1.912 1.912 0 0 1-.445-.664 1.998 1.998 0 0 1-.157-.785c0-.27.051-.532.157-.786.101-.25.25-.472.445-.664L13.695.793a1.95 1.95 0 0 1 .664-.445 2.066 2.066 0 0 1 1.57-.004 2.012 2.012 0 0 1 1.11 1.113c.106.25.156.512.156.785 0 .27-.05.531-.156.785a1.95 1.95 0 0 1-.445.664L5.352 14.934 16.594 26.18c.297.293.48.64.562 1.047.082.41.043.804-.117 1.187-.156.383-.41.688-.754.918-.344.23-.726.348-1.14.348Zm0 0"/></g><path fill="#fff" d="M114.766 16.992H6.223c-.27 0-.532-.05-.785-.152a2.068 2.068 0 0 1-1.11-1.113 2.065 2.065 0 0 1-.156-.782 2.07 2.07 0 0 1 .601-1.453c.192-.191.415-.34.665-.441.253-.106.515-.156.785-.156h108.543c.273 0 .535.05.785.156a2.023 2.023 0 0 1 1.11 1.11c.105.25.155.51.155.784 0 .27-.05.532-.156.782a2.068 2.068 0 0 1-1.11 1.113c-.25.101-.51.152-.784.152ZM110.855 49.379a.998.998 0 0 1-.68-.258l-9.948-8.805A1.019 1.019 0 0 1 99.98 40a1.014 1.014 0 0 1-.046-.785c.043-.13.109-.242.199-.348.09-.101.199-.18.32-.242a1.014 1.014 0 0 1 .785-.047c.13.047.242.113.344.203l9.953 8.805c.16.14.266.316.317.523a1.015 1.015 0 0 1-.415 1.09.996.996 0 0 1-.582.18ZM110.855 59.824a.998.998 0 0 1-.68-.258l-21.76-19.25a1.006 1.006 0 0 1-.243-.316 1.019 1.019 0 0 1-.106-.387 1.043 1.043 0 0 1 .574-.988c.126-.059.255-.094.391-.102a1.05 1.05 0 0 1 .395.055c.129.047.246.113.347.203l21.762 19.25c.16.14.266.313.317.52a1.015 1.015 0 0 1-.415 1.09 1 1 0 0 1-.582.183ZM110.855 70.238a.976.976 0 0 1-.68-.254L76.603 40.316a.994.994 0 0 1-.239-.316 1.037 1.037 0 0 1-.05-.781c.046-.13.113-.246.203-.348a1.014 1.014 0 0 1 1.098-.29c.128.044.245.11.347.2l33.574 29.664c.16.14.266.317.317.524a1.015 1.015 0 0 1-.415 1.09.996.996 0 0 1-.582.18ZM110.855 80.684a.998.998 0 0 1-.68-.258L64.82 40.316a1.006 1.006 0 0 1-.242-.316 1.019 1.019 0 0 1-.105-.387 1.06 1.06 0 0 1 .054-.398 1.053 1.053 0 0 1 .52-.586c.125-.059.254-.094.387-.102a.986.986 0 0 1 .398.055.98.98 0 0 1 .344.2l45.36 40.109c.16.14.265.316.316.523a1.015 1.015 0 0 1-.415 1.09.996.996 0 0 1-.582.18ZM110.855 91.102a.998.998 0 0 1-.68-.258L53.009 40.316a1.006 1.006 0 0 1-.242-.316 1.019 1.019 0 0 1-.106-.387 1.06 1.06 0 0 1 .055-.398.99.99 0 0 1 .203-.344.952.952 0 0 1 .316-.242c.125-.063.254-.094.391-.106a1.05 1.05 0 0 1 .395.055c.128.047.246.113.347.203l57.168 50.528c.16.14.266.312.317.52a1.015 1.015 0 0 1-.415 1.089 1 1 0 0 1-.582.184ZM110.855 101.516a.976.976 0 0 1-.68-.254l-68.98-60.946a.994.994 0 0 1-.238-.316 1.037 1.037 0 0 1-.05-.781c.046-.13.113-.246.202-.348a1.014 1.014 0 0 1 1.098-.29c.129.044.246.11.348.2l68.98 60.942c.16.14.266.316.317.523a1.015 1.015 0 0 1-.415 1.09.969.969 0 0 1-.582.18ZM110.855 111.96a.998.998 0 0 1-.68-.257l-80.76-71.387a1.006 1.006 0 0 1-.345-.703.984.984 0 0 1 .254-.742 1.006 1.006 0 0 1 .703-.344.986.986 0 0 1 .399.055.98.98 0 0 1 .344.2l80.765 71.386c.16.14.266.316.317.523a1.015 1.015 0 0 1-.415 1.09.996.996 0 0 1-.582.18ZM110.855 122.379a.998.998 0 0 1-.68-.258L17.63 40.316a1.006 1.006 0 0 1-.344-.703.986.986 0 0 1 .055-.398.98.98 0 0 1 .2-.344.98.98 0 0 1 .32-.242 1.014 1.014 0 0 1 .78-.047c.13.043.247.11.348.2l92.547 81.804c.16.14.266.312.317.52a1.015 1.015 0 0 1-.415 1.09 1 1 0 0 1-.582.183ZM110.855 132.797a.998.998 0 0 1-.68-.258L7.73 42.012a1.014 1.014 0 0 1-.29-1.102 1.022 1.022 0 0 1 .906-.688c.138-.007.271.008.396.051.13.047.246.114.348.204L111.535 131c.16.145.266.316.317.523a1.015 1.015 0 0 1-.415 1.09 1 1 0 0 1-.582.184ZM111.813 144.059a.998.998 0 0 1-.68-.258l-.957-.848L6.828 51.664a1.068 1.068 0 0 1-.242-.316 1.052 1.052 0 0 1-.102-.387 1.06 1.06 0 0 1 .055-.398.99.99 0 0 1 .203-.344 1.006 1.006 0 0 1 .703-.344.984.984 0 0 1 .742.254l103.348 91.289.957.848c.16.144.266.316.317.523a1.015 1.015 0 0 1-.414 1.09.996.996 0 0 1-.582.18ZM99.809 143.922a.996.996 0 0 1-.676-.254L6.828 62.082a1.036 1.036 0 0 1-.344-.707 1.05 1.05 0 0 1 .254-.742 1.022 1.022 0 0 1 .707-.344c.137-.008.27.012.399.055.125.043.242.11.343.203l92.301 81.582c.16.14.266.316.317.523.05.207.039.41-.035.61a.99.99 0 0 1-.375.48c-.176.121-.372.18-.586.18ZM88.027 143.922c-.257 0-.484-.086-.68-.254L6.829 72.5c-.101-.09-.18-.2-.242-.32a1.014 1.014 0 0 1-.047-.785.98.98 0 0 1 .2-.344.98.98 0 0 1 .32-.242.948.948 0 0 1 .386-.102.984.984 0 0 1 .742.254l80.52 71.168c.16.14.266.316.316.523.051.207.04.41-.039.61a.99.99 0 0 1-.375.48c-.175.121-.37.18-.582.18ZM76.242 143.922c-.258 0-.484-.086-.68-.254L6.829 82.914a1.014 1.014 0 0 1-.29-1.102.933.933 0 0 1 .204-.343 1.006 1.006 0 0 1 .703-.344.984.984 0 0 1 .742.254l68.735 60.75c.16.14.266.316.316.523a1.015 1.015 0 0 1-.414 1.09.996.996 0 0 1-.582.18ZM64.457 143.922a.996.996 0 0 1-.676-.254L6.828 93.359a.968.968 0 0 1-.238-.32 1.057 1.057 0 0 1-.05-.781 1.054 1.054 0 0 1 .519-.586c.125-.059.25-.094.386-.102a.984.984 0 0 1 .742.254l56.95 50.305c.16.14.265.316.316.523.05.207.04.41-.035.61a.99.99 0 0 1-.375.48c-.176.121-.371.18-.586.18ZM52.648 143.922c-.257 0-.484-.086-.68-.254l-45.14-39.89a1.01 1.01 0 0 1-.238-.321.948.948 0 0 1-.102-.387.974.974 0 0 1 .051-.394 1.054 1.054 0 0 1 .52-.586c.12-.063.25-.094.386-.106.137-.007.27.012.399.055.125.043.242.11.343.2l45.141 39.89c.16.14.266.316.317.523.05.207.039.41-.04.61a.99.99 0 0 1-.375.48c-.175.121-.37.18-.582.18ZM40.836 143.922c-.258 0-.484-.086-.68-.254l-33.328-29.45a1.014 1.014 0 0 1-.29-1.102.933.933 0 0 1 .204-.343 1.006 1.006 0 0 1 .703-.343c.137-.008.27.007.399.05.125.047.242.114.343.204l33.329 29.445c.16.14.265.316.316.523a1.015 1.015 0 0 1-.414 1.09.996.996 0 0 1-.582.18ZM29.055 143.922a.998.998 0 0 1-.68-.254L6.828 124.637a.994.994 0 0 1-.238-.317 1.057 1.057 0 0 1-.05-.785 1.054 1.054 0 0 1 .519-.586 1.057 1.057 0 0 1 .785-.05c.125.046.242.113.343.203l21.543 19.027c.16.14.266.316.317.523.055.207.039.41-.035.61a.99.99 0 0 1-.375.48c-.176.121-.371.18-.582.18ZM17.242 143.922c-.258 0-.484-.086-.68-.254l-9.73-8.586a1.014 1.014 0 0 1-.293-1.102.996.996 0 0 1 .52-.59 1.014 1.014 0 0 1 .78-.046c.13.043.247.11.348.199l9.731 8.586c.16.14.27.316.32.523.051.207.04.41-.039.61a.99.99 0 0 1-.375.48c-.176.121-.37.18-.582.18Zm0 0"/></svg>