<svg xmlns="http://www.w3.org/2000/svg" viewBox="0 0 500 382"><defs><style>.cls-1{fill:#f0f0f0}.cls-2{fill:#fafafa}.cls-3{fill:#f5f5f5}.cls-4{fill:#bed5fc}.cls-6{fill:#d8e6fd}.cls-7{fill:#e6e6e6}.cls-8{fill:#89b0f8}.cls-9{fill:#3d6ce3}.cls-10{fill:#a9c4fc}.cls-11{fill:#ebebeb}.cls-6{opacity:.2}.cls-12{fill:#2f54c6}</style></defs><g id="Background_Complete" data-name="Background Complete"><path class="cls-11" d="M0 345.68h500v.25H0zM416.78 361.77h33.12v.25h-33.12zM322.53 364.49h8.69v.25h-8.69zM396.59 352.49h19.19v.25h-19.19zM52.46 354.17h43.19v.25H52.46zM104.56 354.17h6.33v.25h-6.33zM131.47 358.39h93.68v.25h-93.68zM237.01 301.08H43.91c-3.15 0-5.71-2.56-5.71-5.71V23.94c0-3.15 2.56-5.71 5.71-5.71h193.1c3.15 0 5.71 2.56 5.71 5.71v271.43c0 3.15-2.56 5.71-5.71 5.71ZM43.91 18.48c-3.01 0-5.46 2.45-5.46 5.46v271.43c0 3.01 2.45 5.46 5.46 5.46h193.1c3.01 0 5.46-2.45 5.46-5.46V23.94c0-3.01-2.45-5.46-5.46-5.46H43.91ZM453.31 301.08h-193.1c-3.15 0-5.71-2.56-5.71-5.71V23.94c0-3.15 2.56-5.71 5.71-5.71h193.1c3.15 0 5.71 2.56 5.71 5.71v271.43c0 3.15-2.56 5.71-5.71 5.71Zm-193.1-282.6c-3.01 0-5.46 2.45-5.46 5.46v271.43c0 3.01 2.45 5.46 5.46 5.46h193.1c3.01 0 5.46-2.45 5.46-5.46V23.94c0-3.01-2.45-5.46-5.46-5.46h-193.1Z"/><ellipse class="cls-11" cx="424.39" cy="232.26" rx="64.86" ry="42.44"/><ellipse class="cls-11" cx="410.81" cy="187.75" rx="51.27" ry="33.56"/><path class="cls-1" d="M414.73 40.91s8.48-6.23-2.52-7.73c-19.94-2.71-38.04 5.76-40.33 6.89 2.39-3.93.67-6.96-11.36-5.88-9.49.85-34.96 11.62-34.96 11.62h124.48c17.19-13.15-35.3-4.9-35.3-4.9ZM79.54 88.49s6.98-4.62 1.03-5.72c-10.78-2.01-24.11 4.27-25.81 5.11 2.67-2.91 2.65-5.15-4.73-4.36-5.82.63-24.21 8.61-24.21 8.61h72.77c14.32-9.74-19.05-3.63-19.05-3.63Z"/><path class="cls-3" d="M466.3 79.26s4.96-3.28.73-4.07c-7.66-1.43-17.13 3.03-18.34 3.63 1.9-2.07 1.88-3.66-3.36-3.1-4.14.45-17.2 6.12-17.2 6.12h51.7c10.17-6.92-13.53-2.58-13.53-2.58Z"/><ellipse class="cls-11" cx="97.89" cy="294.02" rx="34.76" ry="22.75"/><path class="cls-11" d="M76.2 299.11c-25.34 0-45.88 18.4-45.88 41.11h91.76c0-22.7-20.54-41.11-45.88-41.11Z"/><path class="cls-1" d="M99.47 127.93h203.74v212.29H99.47z"/><path class="cls-7" transform="rotate(180 363.25 234.075)" d="M303.21 127.93h120.07v212.29H303.21z"/><path class="cls-3" transform="rotate(180 363.25 185.225)" d="M340.57 148.37h45.36v73.7h-45.36z"/><path class="cls-3" transform="rotate(180 240.385 161.04)" d="M217.71 138.82h45.36v44.44h-45.36z"/><path class="cls-3" transform="rotate(180 162.3 161.04)" d="M139.62 138.82h45.36v44.44h-45.36z"/><path class="cls-3" transform="rotate(180 240.385 195.595)" d="M217.71 191.49h45.36v8.22h-45.36z"/><path class="cls-3" transform="rotate(180 162.3 195.595)" d="M139.62 191.49h45.36v8.22h-45.36z"/><path class="cls-3" transform="rotate(180 363.25 294.02)" d="M303.21 247.82h120.07v92.4H303.21z"/><path class="cls-7" transform="rotate(180 385.925 284.77)" d="M366.97 262.24h37.92v45.07h-37.92z"/><path class="cls-7" transform="rotate(180 340.57 284.77)" d="M321.61 262.24h37.92v45.07h-37.92z"/><path class="cls-2" d="M99.47 247.82h203.74v92.4H99.47z"/><path class="cls-7" d="M132.65 259.82h44.48v75.2h-44.48z"/><path class="cls-1" d="M321.41 61.82H201.34l101.87 66.11h120.07L321.41 61.82z"/><path class="cls-11" d="M145.59 53.93h33.43v58.44h-33.43z"/><path class="cls-2" d="M201.34 61.82 99.47 127.93h203.74L201.34 61.82z"/><path class="cls-1" d="m201.34 74.54-82.26 53.39h164.53l-82.27-53.39z"/><path class="cls-7" d="M247.54 211.6h-137.9L78.7 237.93v9.89h199.78v-9.89l-30.94-26.33zM78.7 329.82h344.59v10.4H78.7z"/><path class="cls-1" d="M165.92 294.02h137.29v35.8H165.92z"/><path class="cls-7" d="M240.35 247.82h8.1v82h-8.1zM84.96 247.82h8.1v82h-8.1z"/><path class="cls-6" d="M311.08 113.93c18.46 29.57 9.46 68.52-20.11 86.99-29.58 18.47-68.52 9.46-86.99-20.11-18.47-29.58-9.47-68.52 20.11-86.99s68.52-9.46 86.99 20.12Z"/><path class="cls-9" d="M261.99 127.72v41.42h-41.42v-41.42l20.72-20.12.21.22 1.83 1.77 18.66 18.13z"/><path class="cls-12" transform="rotate(180 277.1 150.82)" d="M262 132.5h30.21v36.64H262z"/><path class="cls-12" d="M276.38 139.03h-14.34l-2.05-2.05-16.66-31 33.05 33.05z"/><path class="cls-12" d="M243.33 105.98v14.34l-18.7 18.71h-4.06v-10.29l20.93-20.92 1.83-1.84z"/><path class="cls-9" d="M274.33 136.98h-14.34l-18.7-18.7v-14.34l33.04 33.04z"/><path class="cls-12" d="M274.33 136.98h25.73l-33.04-33.04h-25.73l33.04 33.04z"/><path class="cls-9" d="M208.24 136.98h14.34l18.71-18.7v-14.34l-33.05 33.04z"/></g><g id="Shadow"><ellipse id="_Path_" data-name="&amp;lt;Path&amp;gt;" class="cls-3" cx="257.53" cy="370.67" rx="193.89" ry="11.32"/></g><g id="Sign"><path class="cls-6" d="M322.32 92.98c24.05 38.52 12.33 89.26-26.2 113.32-38.53 24.06-89.26 12.32-113.32-26.2-24.06-38.53-12.34-89.27 26.2-113.33 38.53-24.06 89.26-12.32 113.32 26.21Z"/><path d="m334 124.9-127.65 79.7a82.162 82.162 0 0 1-25.29-27.42l139.4-87.04A82.173 82.173 0 0 1 334 124.9Z" style="fill:#d8e6fd;opacity:.1"/><path class="cls-10" d="M333.01 86.3c-27.74-44.43-86.25-57.96-130.68-30.22-44.43 27.74-57.96 86.25-30.22 130.68 27.75 44.44 86.26 57.97 130.69 30.22 44.43-27.74 57.96-86.25 30.21-130.69Zm-143.93 89.87c-21.89-35.05-11.22-81.22 23.84-103.12 35.06-21.89 81.23-11.21 103.12 23.84 21.89 35.06 11.22 81.23-23.84 103.12s-81.23 11.21-103.12-23.85Z"/><path class="cls-10" d="M186.7 188.81c-11.12 9.01-22.58 17.48-34.11 25.83-11.55 8.32-23.23 16.44-35 24.41-11.8 7.93-23.64 15.78-35.62 23.42-5.96 3.87-12 7.6-18 11.41-2.96 1.96-6.12 3.61-9.7 4.59-1.78.5-3.67.83-5.66.99-2.01.13-4.1.13-6.5-.36-7.06-1.44-11.61-8.33-10.17-15.39.04-.2.1-.45.15-.65.61-2.37 1.53-4.25 2.53-6 1.02-1.73 2.14-3.28 3.37-4.65 2.45-2.78 5.31-4.9 8.38-6.7 6.05-3.72 12.06-7.51 18.15-11.16 12.12-7.41 24.37-14.61 36.68-21.72 12.33-7.08 24.75-14.01 37.3-20.73 12.56-6.7 25.2-13.28 38.18-19.31 4.77-2.22 10.44-.15 12.66 4.62 1.88 4.04.67 8.74-2.64 11.42Z"/><path class="cls-8" d="m465.33 263.12-38.36-38.35H397.1l33.16 33.15h-9.12v42.53h35.07v-37.33h9.12z"/><path class="cls-4" d="m435.46 263.12-38.36-38.35-38.35 38.35h14.31v37.33h48.08v-37.33h14.32z"/><path class="cls-8" d="m309.25 293.42-38.36-38.36h-29.87l33.16 33.16h-9.12v42.53h35.07v-37.33h9.12z"/><path class="cls-4" d="m279.38 293.42-38.36-38.36-38.35 38.36h14.31v37.33h48.08v-37.33h14.32z"/><path class="cls-8" d="m453.35 97.75-38.36-38.36h-29.87l33.16 33.16h-9.12v42.53h35.06V97.75h9.13z"/><path class="cls-4" d="m423.48 97.75-38.36-38.36-38.36 38.36h14.32v37.32h48.08V97.75h14.32z"/></g></svg>