<svg xmlns="http://www.w3.org/2000/svg" width="200" viewBox="0 0 150 150" height="200" version="1.0"><defs><clipPath id="a"><path d="M0 0h149.258v149.258H0Zm0 0"/></clipPath><clipPath id="b"><path d="M75 0C33.578 0 0 33.578 0 75c0 41.418 33.578 74.996 75 74.996 41.418 0 74.996-33.578 74.996-74.996 0-41.422-33.578-75-74.996-75Zm0 0"/></clipPath><clipPath id="c"><path d="M22.426 14.863H128v102.028H22.426Zm0 0"/></clipPath></defs><g clip-path="url(#a)"><g clip-path="url(#b)"><path fill="none" d="M75 0C33.578 0 0 33.578 0 75c0 41.418 33.578 74.996 75 74.996 41.418 0 74.996-33.578 74.996-74.996 0-41.422-33.578-75-74.996-75Zm0 0" stroke="#030c57" stroke-width="3.0002878"/></g></g><g clip-path="url(#c)"><path fill="#030c57" d="M120.887 113.316h-5.274V99.25a3.52 3.52 0 0 1 3.516 3.516c0 .379-.074.77-.227 1.191a1.756 1.756 0 0 0 1.762 2.355c.094-.003.184-.015.273-.027h.004a3.517 3.517 0 0 1 3.461 3.516 3.52 3.52 0 0 1-3.515 3.515Zm-15.82 0V72.88a1.76 1.76 0 0 0-1.758-1.758H78.695c-.972 0-1.757.79-1.757 1.758v40.437H38.261v-50.09L75.18 36.38l36.918 26.848v50.09Zm-3.516 0H80.453v-38.68h21.098Zm-75.598-3.515a3.52 3.52 0 0 1 3.465-3.516h.004c.09.012.18.024.27.028a1.758 1.758 0 0 0 1.765-2.356 3.4 3.4 0 0 1-.23-1.191 3.52 3.52 0 0 1 3.515-3.516v14.066H29.47a3.52 3.52 0 0 1-3.516-3.515ZM75.18 25.832l42.754 31.246-4.094 3.067L76.215 32.78a1.77 1.77 0 0 0-2.07 0L36.52 60.145l-4.094-3.067Zm17.578 8.371v-8.789h10.55v16.617l-10.714-7.828ZM91 18.383h14.066v3.515H91Zm31.64 84.605c.005-.074.005-.148.005-.222 0-3.875-3.153-7.032-7.032-7.032V63.211l6.328-4.746a1.76 1.76 0 0 0-.015-2.828l-15.102-11.035V25.414a1.76 1.76 0 0 0 1.758-1.758v-7.031c0-.973-.789-1.762-1.758-1.762H89.242c-.969 0-1.758.79-1.758 1.762v7.031c0 .969.79 1.758 1.758 1.758v6.34l-13.027-9.52a1.765 1.765 0 0 0-2.074 0L28.434 55.637a1.76 1.76 0 0 0-.02 2.828l6.328 4.746v32.523c-3.875 0-7.031 3.157-7.031 7.032 0 .074.004.148.004.222-3.031.782-5.277 3.54-5.277 6.813 0 3.875 3.156 7.031 7.03 7.031h91.419c3.879 0 7.035-3.156 7.035-7.031 0-3.274-2.25-6.031-5.281-6.813"/></g><path fill="#030c57" d="M59.355 95.734v-8.789h7.036v8.79ZM48.81 86.945h7.03v8.79h-7.03Zm7.03-12.308v8.793h-7.03v-8.793Zm10.552 8.793h-7.036v-8.793h7.036Zm1.757-12.309H47.051c-.973 0-1.758.79-1.758 1.758v24.613c0 .973.785 1.758 1.758 1.758h21.097c.97 0 1.758-.785 1.758-1.758V72.88a1.76 1.76 0 0 0-1.758-1.758M85.727 93.977c.972 0 1.757-.786 1.757-1.758a1.758 1.758 0 1 0-1.758 1.758"/></svg>