<svg xmlns="http://www.w3.org/2000/svg" width="200" viewBox="0 0 150 150" height="200" version="1.0"><defs><clipPath id="a"><path d="M75 0C33.578 0 0 33.578 0 75s33.578 75 75 75 75-33.578 75-75S116.422 0 75 0Zm0 0"/></clipPath><clipPath id="b"><path d="M21.934 19.531h106.5V126h-106.5Zm0 0"/></clipPath></defs><g clip-path="url(#a)"><path fill="none" d="M75 0C33.578 0 0 33.578 0 75s33.578 75 75 75 75-33.578 75-75S116.422 0 75 0Zm0 0" stroke="#030c57" stroke-width="3"/></g><g clip-path="url(#b)"><path fill="#030c57" d="M124.52 122.117h-5.305V60.211c0-.973-.793-1.77-1.77-1.77H32.547c-.977 0-1.77.797-1.77 1.77v61.906h-5.304V50.641l49.496-27.305 49.55 29.047ZM34.316 72.594v-3.54h81.36v3.54Zm81.36-7.078h-81.36V61.98h81.36Zm11.511-15.676L75.895 19.773a1.777 1.777 0 0 0-1.754-.023l-51.293 28.3a1.775 1.775 0 0 0-.914 1.548v74.289c0 .972.793 1.77 1.77 1.77h8.843c.973 0 1.77-.798 1.77-1.77V76.129h81.359v47.758c0 .972.797 1.77 1.77 1.77h8.843c.977 0 1.77-.798 1.77-1.77v-72.52c0-.629-.332-1.207-.871-1.527"/></g><path fill="#030c57" d="M69.691 104.43h3.536v5.304c0 .977.796 1.77 1.77 1.77h7.073a1.77 1.77 0 0 0 1.77-1.77v-5.304h3.539v17.687H69.69Zm7.075 0H80.3v3.539h-3.535Zm14.148-21.227h3.54v5.309c0 .972.792 1.77 1.769 1.77h7.074c.973 0 1.77-.798 1.77-1.77v-5.309h3.535v17.688H90.914Zm7.074 0h3.54v3.54h-3.54Zm0 21.227h3.54v3.539h-3.54Zm10.614 17.687H90.914V104.43h3.54v5.304c0 .977.792 1.77 1.769 1.77h7.074c.973 0 1.77-.793 1.77-1.77v-5.304h3.535Zm-19.457 3.54h21.226c.973 0 1.77-.798 1.77-1.77v-42.45c0-.976-.797-1.769-1.77-1.769H89.145a1.77 1.77 0 0 0-1.766 1.77v19.453H67.922c-.977 0-1.77.796-1.77 1.77v21.226c0 .972.793 1.77 1.77 1.77h21.223M67.922 47.828H82.07v3.54H67.922Zm-3.54-1.766v7.075c0 .972.798 1.77 1.77 1.77H83.84c.972 0 1.77-.798 1.77-1.77v-7.075c0-.976-.797-1.769-1.77-1.769H66.152c-.972 0-1.77.793-1.77 1.77"/></svg>