<svg xmlns="http://www.w3.org/2000/svg" width="200" viewBox="0 0 150 150" height="200" version="1.0"><defs><clipPath id="a"><path d="M75 0C33.578 0 0 33.578 0 75s33.578 75 75 75 75-33.578 75-75S116.422 0 75 0Zm0 0"/></clipPath><clipPath id="b"><path d="M19.188 23.023h111.75V127H19.188Zm0 0"/></clipPath></defs><g clip-path="url(#a)"><path fill="none" d="M75 0C33.578 0 0 33.578 0 75s33.578 75 75 75 75-33.578 75-75S116.422 0 75 0Zm0 0" stroke="#030c57" stroke-width="3"/></g><g clip-path="url(#b)"><path fill="#030c57" d="M130.797 48.004a1.836 1.836 0 0 0-.09-.559l-7.695-23.093a1.929 1.929 0 0 0-1.828-1.317H28.809c-.829 0-1.563.531-1.825 1.317l-7.699 23.093a1.964 1.964 0 0 0-.09.559c0 .016-.008.031-.008.05v7.77c0 2.551.993 4.95 2.797 6.754a9.481 9.481 0 0 0 4.899 2.617v55.993c0 1.539.601 2.992 1.691 4.082a5.742 5.742 0 0 0 4.082 1.69h84.68a5.735 5.735 0 0 0 4.082-1.69 5.735 5.735 0 0 0 1.691-4.082V65.18c4.387-.895 7.7-4.782 7.7-9.426v-7.7c0-.019-.012-.034-.012-.05ZM30.195 26.887h89.602l6.418 19.242H23.78Zm81.368 28.867a5.78 5.78 0 0 1-5.774 5.773 5.78 5.78 0 0 1-5.773-5.773V49.98h11.546Zm-15.395-.07c0 1.539-.625 3.043-1.715 4.132-2.176 2.18-5.984 2.22-8.164.04a5.658 5.658 0 0 1-1.668-4.032V49.98h11.547Zm-15.398 0c0 1.539-.625 3.043-1.711 4.132-2.18 2.18-5.985 2.22-8.164.04a5.661 5.661 0 0 1-1.672-4.032V49.98H80.77Zm-15.395 0c0 1.539-.625 3.043-1.71 4.132-2.18 2.18-5.985 2.22-8.169.04a5.674 5.674 0 0 1-1.668-4.032V49.98h11.547Zm-15.398 0c0 1.539-.622 3.043-1.711 4.132-2.18 2.18-5.985 2.22-8.164.04a5.661 5.661 0 0 1-1.672-4.032V49.98h11.547Zm-26.942.14V49.98h11.547v5.704c0 1.539-.625 3.043-1.71 4.132-2.18 2.18-5.985 2.22-8.169.04a5.674 5.674 0 0 1-1.668-4.032Zm19.246 67.285V80.77h23.094v42.34Zm76.414-.562c-.36.36-.851.562-1.36.562H69.224V78.848c0-1.063-.86-1.926-1.926-1.926H40.355a1.927 1.927 0 0 0-1.925 1.926v44.261h-5.774c-.504 0-1-.203-1.36-.562a1.935 1.935 0 0 1-.562-1.36V65.165a9.656 9.656 0 0 0 4.86-2.625c.324-.328.597-.703.875-1.07.281.383.566.765.91 1.11a9.483 9.483 0 0 0 6.758 2.796 9.626 9.626 0 0 0 6.851-2.836c.328-.328.602-.703.875-1.07.285.383.57.765.91 1.11a9.49 9.49 0 0 0 6.758 2.796 9.626 9.626 0 0 0 6.852-2.836c.328-.328.601-.703.875-1.07.285.383.57.765.914 1.11a9.48 9.48 0 0 0 6.754 2.796 9.642 9.642 0 0 0 6.855-2.836c.328-.328.598-.703.875-1.07.281.383.567.765.91 1.11a9.483 9.483 0 0 0 6.758 2.796 9.626 9.626 0 0 0 6.852-2.836c.336-.336.613-.719.894-1.098 1.754 2.375 4.551 3.934 7.72 3.934 3.16 0 5.94-1.55 7.698-3.91 1.387 1.867 3.414 3.234 5.774 3.715v56.007c0 .512-.203.997-.567 1.36Zm8.262-66.793a5.78 5.78 0 0 1-5.773 5.773 5.78 5.78 0 0 1-5.774-5.773V49.98h11.547Zm0 0"/></g><path fill="#030c57" d="M109.637 76.922h-34.64a1.927 1.927 0 0 0-1.927 1.926v19.246c0 1.062.864 1.922 1.926 1.922h34.64c1.063 0 1.927-.86 1.927-1.922V78.848a1.927 1.927 0 0 0-1.926-1.926Zm-1.922 19.246H76.922V80.77h30.793Zm0 0"/></svg>