<svg xmlns="http://www.w3.org/2000/svg" width="200" viewBox="0 0 150 150" height="200" version="1.0"><defs><clipPath id="a"><path d="M0 0h149.258v149.258H0Zm0 0"/></clipPath><clipPath id="b"><path d="M75 0C33.578 0 0 33.578 0 75c0 41.418 33.578 74.996 75 74.996 41.418 0 74.996-33.578 74.996-74.996 0-41.422-33.578-75-74.996-75Zm0 0"/></clipPath><clipPath id="c"><path d="M20.207 23.129h109.582V117H20.207Zm0 0"/></clipPath></defs><g clip-path="url(#a)"><g clip-path="url(#b)"><path fill="none" d="M75 0C33.578 0 0 33.578 0 75c0 41.418 33.578 74.996 75 74.996 41.418 0 74.996-33.578 74.996-74.996 0-41.422-33.578-75-74.996-75Zm0 0" stroke="#030c57" stroke-width="3.0002878"/></g></g><path fill="#030c57" d="M66.86 84.277H49.507a2.677 2.677 0 0 0-2.676 2.676v14.832c0 1.477 1.2 2.676 2.676 2.676h7.832c.21 0 .418-.043.613-.121.195-.082.371-.2.52-.348.152-.152.27-.324.347-.523a1.58 1.58 0 0 0 0-1.227 1.516 1.516 0 0 0-.347-.523 1.618 1.618 0 0 0-.52-.348 1.576 1.576 0 0 0-.613-.121h-7.3v-2.27h16.28v2.27h-1.382c-.211 0-.418.04-.614.121-.195.082-.37.2-.52.348a1.573 1.573 0 0 0-.347.523 1.565 1.565 0 0 0 0 1.227c.082.199.195.37.348.523.148.149.324.266.52.348.195.078.402.12.612.12h1.918c1.477 0 2.676-1.198 2.676-2.675V86.953c0-1.476-1.199-2.676-2.676-2.676ZM53.456 95.77h-3.414v-8.282h3.414Zm6.242 0h-3.031v-8.282h3.031Zm6.625 0h-3.418v-8.282h3.414Zm.535-59.004H49.508a2.677 2.677 0 0 0-2.676 2.675v14.832c0 1.477 1.2 2.676 2.676 2.676h17.347c1.477 0 2.676-1.199 2.676-2.676V39.441a2.68 2.68 0 0 0-2.676-2.675Zm-10.191 3.21h3.031v8.282h-3.031Zm-6.625 0h3.414v8.282h-3.414Zm16.281 13.762H50.043v-2.27H66.32Zm0-5.48h-3.418v-8.285h3.414Zm.535 12.265H49.508a2.677 2.677 0 0 0-2.676 2.676v14.832a2.68 2.68 0 0 0 2.676 2.676h17.347a2.68 2.68 0 0 0 2.676-2.676V63.2c0-1.476-1.199-2.676-2.676-2.676Zm-10.191 3.211h3.031v8.282h-3.031Zm-6.625 0h3.414v8.282h-3.414Zm16.281 13.762H50.043v-2.27H66.32Zm0-5.48h-3.418v-8.282h3.414Zm23.813-21.48H85.43c-1.48 0-2.676 1.198-2.676 2.675v7.48a2.675 2.675 0 0 0 2.676 2.676h4.707a2.68 2.68 0 0 0 2.675-2.676v-7.48a2.68 2.68 0 0 0-2.675-2.676Zm-.535 9.62H85.96v-6.41h3.64Zm13.59-9.62h-4.708a2.677 2.677 0 0 0-2.675 2.675v7.48c0 1.477 1.199 2.676 2.675 2.676h4.707c1.477 0 2.676-1.199 2.676-2.676v-7.48c0-1.477-1.199-2.676-2.676-2.676Zm-.536 9.62H99.02v-6.41h3.636Zm-12.52 5.352H85.43c-1.48 0-2.676 1.199-2.676 2.676v7.48a2.675 2.675 0 0 0 2.676 2.676h4.707a2.68 2.68 0 0 0 2.675-2.676v-7.48a2.68 2.68 0 0 0-2.675-2.676Zm-.534 9.62H85.96v-6.41h3.64Zm13.59-9.62h-4.708a2.677 2.677 0 0 0-2.675 2.676v7.48c0 1.477 1.199 2.676 2.675 2.676h4.707c1.477 0 2.676-1.2 2.676-2.676v-7.48c0-1.477-1.199-2.676-2.676-2.676Zm-.536 9.62H99.02v-6.41h3.636Zm-12.52 5.352H85.43c-1.48 0-2.676 1.2-2.676 2.676v7.48a2.675 2.675 0 0 0 2.676 2.677h4.707a2.68 2.68 0 0 0 2.675-2.676v-7.48a2.68 2.68 0 0 0-2.675-2.677Zm-.534 9.622H85.96v-6.41h3.64Zm13.59-9.622h-4.708a2.677 2.677 0 0 0-2.675 2.676v7.48c0 1.477 1.199 2.677 2.675 2.677h4.707c1.477 0 2.676-1.2 2.676-2.676v-7.48c0-1.477-1.199-2.677-2.676-2.677Zm-.536 9.622H99.02v-6.41h3.636Zm-12.52 5.351H85.43c-1.48 0-2.676 1.2-2.676 2.676v7.48a2.675 2.675 0 0 0 2.676 2.676h4.707a2.68 2.68 0 0 0 2.675-2.676v-7.48a2.68 2.68 0 0 0-2.675-2.676Zm-.534 9.621H85.96v-6.41h3.64Zm13.59-9.62h-4.708a2.677 2.677 0 0 0-2.675 2.675v7.48c0 1.477 1.199 2.676 2.675 2.676h4.707c1.477 0 2.676-1.2 2.676-2.676v-7.48c0-1.477-1.199-2.676-2.676-2.676Zm-.536 9.62H99.02v-6.41h3.636Zm0 0"/><g clip-path="url(#c)"><path fill="#030c57" d="M128.184 113.45h-9.418v-5.919a9.51 9.51 0 0 0 3.043-1.105 9.23 9.23 0 0 0 1.328-.934 9.266 9.266 0 0 0 2.082-2.477 9.305 9.305 0 0 0 1.074-6.468 9.295 9.295 0 0 0-1.395-3.356 9.32 9.32 0 0 0-2.566-2.57 9.49 9.49 0 0 0-1.61-.86 9.295 9.295 0 0 0-3.562-.71c-1.27 0-2.484.258-3.586.722V84.45c0-.215-.043-.418-.125-.613a1.573 1.573 0 0 0-.347-.523 1.618 1.618 0 0 0-.52-.348 1.576 1.576 0 0 0-.613-.121 1.595 1.595 0 0 0-1.485.992 1.562 1.562 0 0 0-.12.613v7.563a9.253 9.253 0 0 0-2.512 6.347c0 2.454.953 4.688 2.511 6.348v8.719H79.137V62.832c0-.21-.043-.418-.125-.613a1.516 1.516 0 0 0-.348-.524 1.618 1.618 0 0 0-.52-.347 1.65 1.65 0 0 0-.613-.121 1.67 1.67 0 0 0-.617.12c-.195.083-.367.2-.52.348a1.635 1.635 0 0 0-.347.524 1.576 1.576 0 0 0-.121.613v50.594H40.44v-9.145a9.273 9.273 0 0 0 2.13-5.922 9.27 9.27 0 0 0-2.13-5.918V33.187h35.48v22.047c0 .211.04.418.122.614.082.199.2.37.348.52.152.152.324.269.52.35.198.079.401.122.616.122a1.568 1.568 0 0 0 1.133-.473c.152-.148.266-.32.348-.52a1.58 1.58 0 0 0 .125-.613v-7.492h31.226v29a1.595 1.595 0 0 0 .989 1.485c.199.082.402.12.617.12a1.59 1.59 0 0 0 1.133-.468 1.598 1.598 0 0 0 .468-1.137v-29h.536c1.476 0 2.675-1.199 2.675-2.676V40.36c0-1.476-1.199-2.675-2.675-2.675h-34.97v-4.496h1.34a2.674 2.674 0 0 0 2.676-2.672v-4.711c0-1.477-1.199-2.676-2.675-2.676H35.89a2.677 2.677 0 0 0-2.676 2.676v4.71c0 1.477 1.2 2.672 2.676 2.672h1.343v56.754a9.195 9.195 0 0 0-3.972-.89c-.61 0-1.215.062-1.817.18a9.345 9.345 0 0 0-5.922 3.96 9.22 9.22 0 0 0-.859 1.61 9.295 9.295 0 0 0-.71 3.558c0 .543.046 1.082.144 1.618a9.14 9.14 0 0 0 .422 1.57c.183.508.414 1 .687 1.469.27.472.582.914.93 1.332a9.489 9.489 0 0 0 2.48 2.078c.469.27.961.5 1.473.683a9.363 9.363 0 0 0 1.566.422v5.918h-9.843a1.584 1.584 0 0 0-1.137.473c-.149.148-.266.32-.348.52a1.576 1.576 0 0 0-.121.613c0 .215.04.418.121.613.082.2.2.371.348.523.152.149.324.266.523.348.196.082.399.121.613.121h106.372c.214 0 .418-.039.613-.12.2-.083.371-.2.523-.349.149-.152.266-.324.348-.523.082-.195.121-.398.121-.613 0-.211-.039-.418-.121-.614-.082-.199-.2-.37-.348-.52a1.584 1.584 0 0 0-1.136-.472Zm-14.61-72.555v3.636H79.137v-3.636ZM36.426 29.98v-3.64H79.94v3.64Zm.808 83.47h-2.367v-5.919a9.336 9.336 0 0 0 2.367-.75Zm-2.367-9.204v-2.031a1.595 1.595 0 0 0-.992-1.485 1.562 1.562 0 0 0-.613-.12c-.211 0-.418.038-.614.12a1.557 1.557 0 0 0-.52.348c-.151.152-.269.324-.347.52-.082.199-.125.402-.125.617v2.031a6.1 6.1 0 0 1-3.238-2.183 6.042 6.042 0 0 1-.934-1.75 6.106 6.106 0 0 1 5.777-8.05c3.364-.001 6.102 2.737 6.102 6.096a6.11 6.11 0 0 1-4.496 5.887Zm80.688 9.203h-1.98v-6.5c.636.27 1.3.461 1.98.582Zm1.605-12.84c-.21 0-.418.04-.613.121a1.598 1.598 0 0 0-.867.867c-.082.2-.125.403-.125.618v2.031a6.1 6.1 0 0 1-4.168-3.933 6.025 6.025 0 0 1-.325-1.954 6.108 6.108 0 0 1 6.098-6.097c3.363 0 6.102 2.738 6.102 6.097a6.11 6.11 0 0 1-4.496 5.887v-2.031a1.595 1.595 0 0 0-.989-1.485 1.595 1.595 0 0 0-.617-.12Zm0 0"/></g></svg>