<svg xmlns="http://www.w3.org/2000/svg" width="200" viewBox="0 0 150 150" height="200" version="1.0"><defs><clipPath id="a"><path d="M75 0C33.578 0 0 33.578 0 75s33.578 75 75 75 75-33.578 75-75S116.422 0 75 0Zm0 0"/></clipPath><clipPath id="b"><path d="M19.336 19.172h111v105h-111Zm0 0"/></clipPath></defs><g clip-path="url(#a)"><path fill="none" d="M75 0C33.578 0 0 33.578 0 75s33.578 75 75 75 75-33.578 75-75S116.422 0 75 0Zm0 0" stroke="#030c57" stroke-width="3"/></g><g clip-path="url(#b)"><path fill="#030c57" d="m127.602 48.105-49.676-27.91a6.015 6.015 0 0 0-5.86 0l-49.675 27.91a5.99 5.99 0 0 0-3.055 5.215v64.778a5.99 5.99 0 0 0 5.984 5.98h99.352a5.988 5.988 0 0 0 5.98-5.98V53.32a5.987 5.987 0 0 0-3.05-5.215Zm-80.543 72.391c.55-.305.921-.89.921-1.566v-14.414H61.81v14.414c0 .675.375 1.261.925 1.566Zm.921-19.562V98.3c.778.972 1.66 1.86 2.633 2.633Zm16.489 19.562c.55-.305.922-.89.922-1.566v-14.414h4.093l6.43 15.113c.16.379.445.68.79.867Zm14.277-3.355-6.016-14.145a3.385 3.385 0 0 0-3.117-2.062h-8.77c-7.093 0-12.863-5.77-12.863-12.86V74.371a5.54 5.54 0 0 1 7.993-4.965l.027.012 13.07 8.894.063.04a7.79 7.79 0 0 0 4.105 1.171h2.239c1.02 0 1.847.829 1.847 1.848v.602h-7.761a.861.861 0 0 1-.477-.141l-13.129-8.535a1.791 1.791 0 0 0-1.953 3.004l3.324 2.16v11.953c-.043.613-.113 3.2 1.617 5.113.797.875 2.278 1.922 4.828 1.922h9.36c.824 0 1.57.489 1.894 1.246l6.504 15.051c.297.774.2 1.61-.27 2.297a2.49 2.49 0 0 1-2.081 1.098Zm19.781 0H89.63a1.789 1.789 0 0 0-.867 3.355h-7.95a6.065 6.065 0 0 0 3.41-2.437 6.064 6.064 0 0 0 .633-5.645c-.007-.02-.015-.039-.023-.055l-6.516-15.086a5.642 5.642 0 0 0-5.183-3.406h-9.36c-1 0-1.707-.238-2.16-.73-.691-.754-.746-2.051-.71-2.473.003-.059.007-.117.007-.176V80.79l6.223 4.047a4.474 4.474 0 0 0 2.43.719h28.964Zm28.543.957a2.401 2.401 0 0 1-2.398 2.398h-18.66a1.789 1.789 0 0 0-.867-3.355h-3.036V85.555h3.036c.988 0 1.789-.801 1.789-1.79 0-.992-.801-1.792-1.79-1.792H80.907v-.602a5.436 5.436 0 0 0-5.43-5.43h-2.238a4.231 4.231 0 0 1-2.187-.613l-13.266-9.027a1.96 1.96 0 0 0-.52-.242 9.062 9.062 0 0 0-3.75-.805c-5.027 0-9.117 4.09-9.117 9.117v44.559c0 .675.375 1.261.926 1.566H25.32a2.405 2.405 0 0 1-2.402-2.398V53.32c0-.867.469-1.668 1.227-2.093L73.82 23.32a2.41 2.41 0 0 1 1.176-.304c.406 0 .813.101 1.176.304l49.676 27.907a2.407 2.407 0 0 1 1.222 2.093ZM53.43 47.289c-4.696 0-8.512 3.82-8.512 8.516 0 4.695 3.816 8.515 8.512 8.515 4.695 0 8.515-3.82 8.515-8.515 0-4.696-3.82-8.516-8.515-8.516Zm0 13.45a4.938 4.938 0 0 1-4.93-4.934 4.938 4.938 0 0 1 4.93-4.934 4.941 4.941 0 0 1 4.933 4.934 4.941 4.941 0 0 1-4.933 4.933Zm49.59 3.19a1.795 1.795 0 0 0-2.196 1.27l-3.297 12.309h-12.55c-.989 0-1.793.805-1.793 1.793 0 .988.804 1.789 1.793 1.789h13.96c.95 0 1.727-.738 1.786-1.672l3.562-13.293a1.793 1.793 0 0 0-1.265-2.195Zm0 0"/></g></svg>