<svg xmlns="http://www.w3.org/2000/svg" width="200" viewBox="0 0 150 150" height="200" version="1.0"><defs><clipPath id="a"><path d="M0 0h149.258v149.258H0Zm0 0"/></clipPath><clipPath id="b"><path d="M75 0C33.578 0 0 33.578 0 75c0 41.418 33.578 74.996 75 74.996 41.418 0 74.996-33.578 74.996-74.996 0-41.422-33.578-75-74.996-75Zm0 0"/></clipPath><clipPath id="c"><path d="M14.164 36h120.918v77.379H14.164Zm0 0"/></clipPath></defs><g clip-path="url(#a)"><g clip-path="url(#b)"><path fill="none" d="M75 0C33.578 0 0 33.578 0 75c0 41.418 33.578 74.996 75 74.996 41.418 0 74.996-33.578 74.996-74.996 0-41.422-33.578-75-74.996-75Zm0 0" stroke="#030c57" stroke-width="3.0002878"/></g></g><g clip-path="url(#c)"><path fill="#030c57" d="M135.64 105.781a1.508 1.508 0 0 0-.136-.445L120.09 72.609a1.718 1.718 0 0 0-1.543-.98h-29.18c2.5-5.344 3.707-10.281 3.582-14.703-.242-9.031-3.586-15.242-9.933-18.461a17.818 17.818 0 0 0-16.047 0c-6.344 3.219-9.688 9.43-9.934 18.46-.12 4.423 1.086 9.36 3.586 14.704h-29.18c-.66 0-1.27.39-1.543.98L14.48 105.336c-.066.14-.109.293-.136.445a1.71 1.71 0 0 0-.13.633v5.969c0 .941.766 1.707 1.708 1.707h118.14c.942 0 1.708-.766 1.708-1.707v-5.969c0-.223-.047-.437-.13-.633ZM51.825 87.344H40.07l4.52-12.656h11.336Zm7.317-12.656h3.027c.066.128.14.242.21.367.403.73.813 1.445 1.231 2.14.063.106.125.215.188.317.476.785.96 1.539 1.441 2.273.121.18.242.356.36.535.414.614.824 1.207 1.226 1.774.078.11.153.222.23.328.473.66.934 1.277 1.38 1.863.027.035.058.082.09.121-.047.008-.098.024-.145.035a18.67 18.67 0 0 0-.742.184c-.078.023-.16.043-.239.066-.308.086-.617.184-.918.29-.062.019-.12.046-.18.066-.253.094-.503.195-.745.3-.075.036-.149.067-.223.102a8.502 8.502 0 0 0-.816.434c-.04.023-.075.05-.114.078a5.957 5.957 0 0 0-.773.59c-.207.191-.399.39-.555.61-.015.019-.023.042-.039.062a3.13 3.13 0 0 0-.394.84 2.899 2.899 0 0 0-.13.812c0 3.543 6.27 5.129 12.481 5.129 6.215 0 12.485-1.586 12.485-5.129 0-.29-.055-.555-.133-.813a3.13 3.13 0 0 0-.395-.84l-.035-.062a4.055 4.055 0 0 0-.555-.61c-.054-.046-.109-.097-.168-.144a5.556 5.556 0 0 0-.609-.445c-.039-.027-.074-.055-.113-.078a8.502 8.502 0 0 0-.817-.434c-.07-.035-.148-.066-.222-.101a14.01 14.01 0 0 0-.743-.301c-.062-.02-.117-.047-.18-.067-.304-.105-.609-.203-.917-.289l-.242-.066c-.25-.066-.496-.129-.739-.184-.046-.011-.097-.027-.144-.035.027-.039.058-.086.09-.12.445-.587.902-1.204 1.379-1.864l.226-.328c.406-.567.813-1.16 1.227-1.774l.36-.535c.483-.734.964-1.488 1.444-2.273.063-.102.121-.211.188-.317.418-.695.828-1.41 1.23-2.14.067-.125.141-.239.211-.368h3.028l9.722 30.02H49.414ZM74.992 90.84c.664 0 1.305-.281 1.754-.774.102-.109.25-.273.426-.468.047-.055.11-.121.164-.184.144-.164.293-.332.473-.539l.273-.313a81.51 81.51 0 0 0 .922-1.085c.101-.122.195-.227.3-.356.09.012.184.024.27.04.172.026.336.054.496.085.215.04.426.078.625.121.149.035.293.067.43.102a11.793 11.793 0 0 1 .895.242c.164.05.312.102.457.148.097.036.199.07.289.106.136.05.261.105.379.156l.226.098c.113.054.207.105.305.156.05.031.11.059.156.086.094.059.172.11.242.16.028.024.067.043.09.063.09.07.16.136.203.191-.543.668-3.738 2.07-9.375 2.07-5.633 0-8.832-1.402-9.375-2.07.047-.055.117-.121.203-.191.028-.02.063-.04.094-.063.07-.05.145-.101.238-.16.047-.027.11-.055.16-.086.094-.05.192-.102.305-.156.067-.031.149-.067.223-.098.12-.05.242-.105.379-.156.09-.035.191-.07.289-.106l.457-.148c.113-.035.238-.07.36-.106.171-.046.35-.093.538-.136.137-.035.282-.067.43-.102.2-.043.406-.082.625-.12.16-.032.324-.06.492-.087.086-.015.184-.027.274-.039.105.125.195.23.296.352l.38.453c.195.226.367.43.538.629.098.11.192.222.282.324.172.2.32.363.46.523l.18.203c.176.192.32.352.418.461.453.493 1.09.774 1.754.774Zm28.793 13.867-4.633-14.305h11.332l5.106 14.305Zm15.05 0-5.105-14.305h11.36l6.738 14.305Zm4.813-17.363H98.16l-4.097-12.656h23.624ZM68.352 41.195a14.689 14.689 0 0 1 6.64-1.582c2.281 0 4.563.528 6.64 1.582 5.345 2.707 8.044 7.88 8.263 15.813.12 4.504-1.34 9.699-4.348 15.441-2.61 4.985-5.828 9.317-8.067 12.07a81.64 81.64 0 0 1-2.488 2.926 81.64 81.64 0 0 1-2.488-2.925c-2.238-2.754-5.453-7.086-8.067-12.07-3.003-5.743-4.468-10.938-4.343-15.442.215-7.934 2.918-13.106 8.258-15.813ZM32.3 74.687h9.039l-4.516 12.657H26.34Zm-7.403 15.715h25.934l-4.633 14.305H18.156Zm107.813 20.63H17.277v-3.262h115.434ZM74.992 65.968c5.692 0 10.324-4.63 10.324-10.32 0-5.692-4.632-10.325-10.324-10.325-5.691 0-10.32 4.633-10.32 10.324 0 5.692 4.629 10.32 10.32 10.32Zm0-17.586a7.272 7.272 0 0 1 7.266 7.265c0 4.004-3.258 7.262-7.266 7.262-4.004 0-7.262-3.258-7.262-7.262 0-4.007 3.258-7.265 7.262-7.265Zm0 0"/></g></svg>